<?xml version="1.0" encoding="utf-8"?>
<!-- Generator: Adobe Illustrator 24.3.0, SVG Export Plug-In . SVG Version: 6.00 Build 0)  -->
<svg version="1.1" id="Capa_1" xmlns="http://www.w3.org/2000/svg" xmlns:xlink="http://www.w3.org/1999/xlink" x="0px" y="0px"
	 viewBox="0 0 700 700" style="enable-background:new 0 0 700 700;" xml:space="preserve">
<style type="text/css">
	.st0{fill:#0077B6;}
</style>
<path class="st0" d="M499.2,307.4c-4-3-9.7-2.2-12.7,1.8c-13.3,17.6-29.3,32.2-47.5,43.3l4.2-36.2v-0.2
	c2.2-21.9-13.9-41.5-35.8-43.7s-41.5,13.9-43.7,35.8v0.4c-1.1,19.9-5.5,54.8-12.3,68.8H350c-54.1,0-103.9-24.9-136.5-68.2
	c-3-4-8.7-4.8-12.7-1.8s-4.8,8.7-1.8,12.7c17.2,22.9,39.8,41.9,65.2,54.9c26.7,13.6,55.5,20.6,85.7,20.6c28.6,0,56.1-6.2,81.6-18.5
	h0.1c0.2-0.1,0.4-0.2,0.5-0.3c1.2-0.6,2.4-1.2,3.6-1.8c25.5-13,48-32,65.2-54.9C504,316,503.2,310.3,499.2,307.4L499.2,307.4z
	 M404.9,305.6c-5-0.5-9.4,3.1-10,8c-2.6,24.2-6.4,53.1-8.1,57.8c-0.3,0.7-0.6,1.5-0.7,2.2c-4.9,1-9.9,1.9-14.9,2.5
	c7.8-23.9,10.2-60.5,10.5-66.2c1.3-11.9,11.9-20.6,23.9-19.4s20.7,11.9,19.5,23.8l-5.7,48.5c-4.4,2-8.9,3.7-13.5,5.3
	c0.9-5.1,2.1-12.8,3.5-24.4c1.8-14.3,3.3-28,3.3-28.1C413.5,310.6,409.8,306.1,404.9,305.6L404.9,305.6z"/>
<path class="st0" d="M250.4,218.9h-0.7c-5-0.4-8.8-4.7-8.4-9.7c1.7-23.2,19.7-41.8,42.8-44.4c26.4-3,50.3,16.1,53.3,42.6
	c0.6,5-3,9.5-8,10c-5,0.6-9.5-3-10-8c-1.9-16.5-16.8-28.4-33.2-26.5c-14.4,1.6-25.6,13.3-26.7,27.7
	C259.1,215.3,255.1,218.9,250.4,218.9L250.4,218.9z"/>
<path class="st0" d="M379.1,218.9h-0.7c-5-0.4-8.8-4.7-8.4-9.7c1.7-23.2,19.7-41.8,42.8-44.4c12.8-1.5,25.4,2.2,35.5,10.3
	c10.1,8,16.4,19.5,17.8,32.3c0.6,5-3,9.5-8,10c-5,0.6-9.5-3-10-8c-0.9-8-4.8-15.1-11.1-20.2c-6.3-5-14.2-7.3-22.1-6.4
	c-14.4,1.6-25.6,13.3-26.7,27.7C387.8,215.3,383.9,218.9,379.1,218.9L379.1,218.9z"/>
</svg>
