<?xml version="1.0" encoding="utf-8"?>
<!-- Generator: Adobe Illustrator 24.3.0, SVG Export Plug-In . SVG Version: 6.00 Build 0)  -->
<svg version="1.1" id="Capa_1" xmlns="http://www.w3.org/2000/svg" xmlns:xlink="http://www.w3.org/1999/xlink" x="0px" y="0px"
	 viewBox="0 0 700 700" style="enable-background:new 0 0 700 700;" xml:space="preserve">
<style type="text/css">
	.st0{fill:#0077B6;}
</style>
<path class="st0" d="M248.1,374.1l80.6-71.1l-140-140c-7.3-7.3-19.6-4.5-23.5,5c-19,49.8-8.4,107,28.6,146.7L248.1,374.1z"/>
<path class="st0" d="M398.7,373l-44.2,49.8L434,527c15.1,21.3,45.9,23.5,64.4,5c16.8-16.8,16.8-43.7,0-59.9L398.7,373z"/>
<path class="st0" d="M540.4,235.8c-5.6-5.6-14.6-5.6-20.7,0l-77.3,77.8c-2.8,2.8-7.8,2.8-10.6,0l-6.2-6.2c-2.8-2.8-2.8-7.8,0-10.6
	l77.8-77.8c5.6-5.6,5.6-14.6,0-20.7c-5.6-5.6-14.6-5.6-20.7,0l-77.8,77.8c-2.8,2.8-7.8,2.8-10.6,0l-6.2-6.2c-2.8-2.8-2.8-7.8,0-10.6
	l77.8-77.8c5.6-5.6,5.6-14.6,0-20.7c-5.6-5.6-14.6-5.6-20.7,0L354.5,252c-13.4,13.4-13.4,34.7,0,48.2l5,5L169.1,473.8
	c-17.9,15.7-18.5,43.1-1.7,59.9l0.6,0.6c16.8,16.8,44.2,15.7,59.9-1.7l168.6-190.4l5,5c13.4,13.4,34.7,13.4,48.2,0l90.7-90.7
	C546,250.3,546,241.4,540.4,235.8L540.4,235.8z"/>
<path class="st0" d="M291.8,206.1c2.2,1.1,3.9,1.1,6.2,1.1c6.2,0,11.8-3.4,14.6-9.5c6.2-14,13.4-26.3,21.3-37
	c17.4,5.6,36.4,5.6,50.4-3.9c30.2-20.7,35.8-92.4,33.6-134.4c-0.6-7.3-9.5-11.2-14.6-5.6C359.5,61,291.8,59.9,287.3,107
	c-0.6,7.8,1.1,15.1,5,21.8c29.7-25.2,59.4-35.3,68.9-38.1c-22.4,16.2-56.6,46.5-77.3,95.2C280,193.8,283.9,202.7,291.8,206.1
	L291.8,206.1z"/>
</svg>
