<?xml version="1.0" encoding="utf-8"?>
<!-- Generator: Adobe Illustrator 24.3.0, SVG Export Plug-In . SVG Version: 6.00 Build 0)  -->
<svg version="1.1" id="Capa_1" xmlns="http://www.w3.org/2000/svg" xmlns:xlink="http://www.w3.org/1999/xlink" x="0px" y="0px"
	 viewBox="0 0 700 700" style="enable-background:new 0 0 700 700;" xml:space="preserve">
<style type="text/css">
	.st0{fill:#0077B6;}
</style>
<path class="st0" d="M391.3,185.6c0,0,29.8-71.6,81.5-78.4c0,0-7.8,8.5-19.9,24c-35.8,45.8-110,153.1-135.8,284.4
	c0,0-37.6-311.5-207-388.9c0,0,149.5,165.2,182.9,508h48.1c0,0,10.5-202.8,102.4-319.9c0,0,71.1,6.3,96.2-41.8
	c25.1-48.1,18.8-98.3,50.2-146.3C357.2,7.2,391.3,185.6,391.3,185.6L391.3,185.6z"/>
</svg>
